<?xml version="1.0" encoding="UTF-8" standalone="no"?>
<!-- Created with Inkscape (http://www.inkscape.org/) -->

<svg
   version="1.1"
   id="svg1"
   width="1600"
   height="1066.6667"
   viewBox="0 0 1600 1066.6667"
   sodipodi:docname="ranier.svg"
   inkscape:export-filename="ranier.svg"
   inkscape:export-xdpi="96"
   inkscape:export-ydpi="96"
   inkscape:version="1.4.3 (0d15f75, 2025-12-25)"
   xmlns:inkscape="http://www.inkscape.org/namespaces/inkscape"
   xmlns:sodipodi="http://sodipodi.sourceforge.net/DTD/sodipodi-0.dtd"
   xmlns="http://www.w3.org/2000/svg"
   xmlns:svg="http://www.w3.org/2000/svg">
  <defs
     id="defs1">
    <filter
       style="color-interpolation-filters:sRGB"
       inkscape:label="Blur"
       id="filter6"
       x="-0.011597975"
       y="-0.016569844"
       width="1.023196"
       height="1.0331397">
      <feGaussianBlur
         stdDeviation="1.31"
         result="blur"
         id="feGaussianBlur5" />
      <feComposite
         in="SourceGraphic"
         in2="blur"
         operator="in"
         result="composite1"
         id="feComposite5" />
      <feComposite
         in="composite1"
         in2="composite1"
         operator="in"
         result="fbSourceGraphic"
         id="feComposite6" />
      <feColorMatrix
         result="fbSourceGraphicAlpha"
         in="fbSourceGraphic"
         values="0 0 0 -1 0 0 0 0 -1 0 0 0 0 -1 0 0 0 0 1 0"
         id="feColorMatrix6" />
      <feGaussianBlur
         id="feGaussianBlur6"
         stdDeviation="6.45107 6.14436"
         result="blur"
         in="fbSourceGraphic" />
    </filter>
  </defs>
  <sodipodi:namedview
     id="namedview1"
     pagecolor="#505050"
     bordercolor="#eeeeee"
     borderopacity="1"
     inkscape:showpageshadow="0"
     inkscape:pageopacity="0"
     inkscape:pagecheckerboard="0"
     inkscape:deskcolor="#505050"
     showgrid="false"
     inkscape:zoom="0.75656244"
     inkscape:cx="799.66962"
     inkscape:cy="533.33337"
     inkscape:window-width="1920"
     inkscape:window-height="1009"
     inkscape:window-x="1912"
     inkscape:window-y="-8"
     inkscape:window-maximized="1"
     inkscape:current-layer="g1">
    <inkscape:page
       x="0"
       y="0"
       width="1600"
       height="1066.6667"
       id="page2"
       margin="0"
       bleed="0" />
  </sodipodi:namedview>
  <g
     inkscape:groupmode="layer"
     inkscape:label="Image"
     id="g1">
    <g
       id="g2">
      <path
         style="display:inline;fill:#8c8c8c;fill-opacity:1;filter:url(#filter6)"
         d="m 1.1423503,1065.4797 c -4.1445219,-8.758 1.1618863,-61.2352 6.3022975,-23.9654 -12.0329414,-54.0547 13.7137432,25.8418 10.4844432,-23.3368 20.294011,28.4012 20.812862,-38.35195 8.382798,6.0011 C 46.334063,980.15988 -15.748565,1013.5857 3.660761,960.27214 -10.54663,925.86623 5.5725313,876.8938 34.86291,912.4453 c 45.896503,-23.02668 43.825696,47.52871 81.01606,37.94466 21.72613,-1.94515 26.35484,23.35056 64.81131,11.80369 18.70182,-1.15882 64.95143,9.09293 17.68799,-7.70935 20.16949,-2.68787 47.24606,-9.72141 81.29896,-22.18247 57.01673,-11.77111 107.85043,-4.3227 171.65626,-5.52022 27.66453,-17.07085 108.92856,15.71293 98.70164,2.05188 12.97689,32.20914 57.51706,22.24476 85.29189,35.17681 26.98399,-23.1429 56.89548,-3.72044 65.04574,21.00786 -51.83221,-6.26843 -11.41799,46.24084 16.35808,31.54064 -1.28601,21.4338 -38.68394,4.4064 -21.62624,1.1838 -27.93896,-6.8669 -82.70837,1.0389 -65.418,21.695 55.58045,50.829 -83.65515,25.9534 -38.6591,-7.5246 -14.45897,-28.949 -17.14182,21.37 -31.71028,-5.2087 9.4055,-13.772 7.27227,23.3251 -4.33113,6.3825 -24.89383,-6.2829 -21.08319,-29.5947 -46.67837,-40.11527 -4.85268,47.51857 -9.0902,-18.07219 -4.37429,-9.91533 -10.157,-7.44487 -9.44407,58.3025 -23.68818,12.25577 -12.74653,-0.19873 -28.18725,-31.81214 -18.25723,8.48533 -14.74024,-17.61078 -13.24399,59.2924 6.57671,16.4695 17.89145,43.5568 -43.65505,20.5616 -68.33228,15.2356 -24.98688,-9.4845 -2.91057,54.3908 -48.78277,31.0306 -48.57564,2.0324 -104.07821,-1.6951 -141.28278,-2.9364 -4.54522,-14.2135 -21.95946,-52.1913 -17.45085,-17.4967 -4.08253,20.385 29.21996,10.3554 -12.03286,19.3403 -25.35524,-7.2903 -1.98442,-20.5011 -12.8407,-44.7089 5.16934,17.639 21.9668,57.0391 17.12278,17.7475 13.78135,42.3729 1.2759,-72.99053 11.41853,-26.9269 28.65544,1.7558 4.48785,-42.81962 14.89486,-30.45401 -32.67097,6.07994 -20.93359,-4.68727 -55.43161,-11.22473 -5.31206,46.09974 -24.97766,-16.33164 -14.60396,31.84474 18.22151,6.5282 20.45953,-54.88948 30.45065,-1.353 7.41157,21.844 7.8442,35.4322 -7.4659,11.299 -8.40958,17.3143 16.42,-30.15602 -6.12622,-11.77597 -6.82732,35.44417 21.67864,84.00557 -32.25535,63.00427 -5.21016,5.7855 -17.90358,-31.4749 -15.6086,3.7745 -44.024221,23.5566 -49.404334,-89.94705 -47.735479,-23.0793 0.752356,33.0159 -28.467367,1.855 -41.240765,31.9721 26.345881,-19.3617 -12.6341283,-10.423 -20.1190757,-10.0798 z m 130.1779397,-9.4796 c 6.33069,-22.5264 -18.23607,-61.60449 -8.62015,-17.8684 2.0969,-48.76856 -39.941059,-9.2414 -14.67565,9.9237 3.36164,-68.59974 21.43224,35.5744 23.2958,7.9447 z M 684,1064.5777 c -14.00305,-54.4983 45.21307,25.2898 62.22157,-10.0353 21.24137,23.2696 -54.21328,8.8148 -62.22157,10.0353 z m 77.85853,-2.5776 c 52.28355,-29.2781 -60.97237,-39.2481 -8.06513,-44.0575 26.75402,30.9904 79.02053,-1.3647 99.19862,17.444 -14.47756,3.9204 72.26688,21.5967 63.9641,26.0055 21.07241,12.8432 -68.45542,-0.3587 -93.04121,5.3621 -16.39384,-2.2554 -57.04162,5.0904 -62.05638,-4.7541 z m 203.4748,1.9806 c -21.39326,-32.3269 2.92552,-23.1739 9.37325,-13.4997 20.67275,10.6161 51.00052,8.7942 77.30832,7.8352 -10.7055,10.6193 -56.31364,4.0319 -86.68157,5.6645 z m 122.68707,1.686 c 24.8255,-33.731 -19.2732,10.606 -0.07,-21.4887 -6.8808,-24.139 -19.1696,-28.9751 -7.096,-28.619 -25.0454,-8.4172 -14.6536,-8.9631 -45.756,-12.6255 -18.6155,4.5544 23.7177,-33.76974 21.2499,-23.93188 13.6791,5.27952 12.3874,-38.35285 19.5441,-2.77631 1.1921,-31.3546 30.1367,-6.10964 34.3076,-3.49646 -26.7441,28.56685 12.9796,0.22433 6.7762,22.12316 27.8437,12.79549 91.6693,9.72819 95.4341,13.50569 37.6567,-2.9231 34.7741,4.4135 47.1887,26.3527 -27.6548,13.9869 50.6206,32.0181 1.3968,30.2021 -25.0012,-4.6341 -25.8553,-33.0081 -40.2362,-37.446 -3.84,-18.8714 -11.9885,24.8692 -31.7455,1.2314 -21.3204,8.9758 -7.7707,0.75 -18.8147,-0.088 -10.2383,5.6311 7.0475,63.8581 -10.5244,20.3416 -10.2164,27.7606 -48.3508,12.637 -71.6544,16.7149 z m 507.001,-86.91916 c -9.7334,-43.26042 24.5383,-139.8276 -31.9978,-133.52658 -28.594,1.97706 -63.1743,-24.87356 -63.0461,12.66301 -8.7823,-51.76009 -33.4713,29.70612 -25.3865,-5.3483 -15.8967,-18.42598 -42.7594,-49.68252 -51.7015,0.47578 -2.1438,-63.09901 -53.3903,-0.41752 -53.6184,1.12276 14.0319,-50.64946 -88.2974,-21.2231 -59.702,-21.18658 -12.027,-71.92108 -46.4962,101.40433 -38.3991,1.13241 -3.2128,-31.94006 -48.618,4.27826 -42.7409,-33.72713 -30.1187,13.19749 -22.9654,-23.05178 -48.1273,-11.35843 -46.779,14.24683 -81.216,15.60967 -132.7611,23.65274 -31.6705,-10.20172 -85.46749,-11.75427 -111.42855,-7.49185 -39.6867,-5.61479 -70.59618,-20.89619 -92.37191,4.17486 -35.52405,-1.66092 -69.54095,-22.41793 -78.13902,0.34293 -18.7972,-22.41887 -22.63721,4.83825 -47.82272,-16.9983 -21.78341,19.76613 -22.95684,11.01372 -38.44516,39.23959 -12.3778,6.61372 -38.10574,-47.78437 -52.67496,-24.57843 37.59776,5.52198 35.83564,92.52735 13.89908,27.56574 -26.35308,-46.73316 -73.02336,-27.93704 -69.42418,4.8777 -20.20754,-24.77936 -42.05472,-25.70057 -15.95263,6.64022 -19.75041,20.72226 40.74939,21.83786 33.36806,31.1298 -2.3759,45.17855 -55.92328,-38.18994 -89.7229,-24.22004 -37.44594,-24.34537 -5.1145,-21.82873 15.66188,-11.59261 -15.20626,-50.07197 -47.54162,-15.95358 -80.86338,-48.81214 -16.92966,24.02125 67.09328,51.64531 3.51836,33.43717 -35.90147,-13.99179 -62.75048,-7.56377 -106.54286,-34.24613 -18.23869,2.37874 -47.357,-0.16704 -30.30483,-15.58895 -21.64367,-25.45308 -25.33712,20.43359 -47.21719,-5.17947 -27.34617,-4.71565 -72.67364,-30.96473 -41.09688,10.0771 16.78068,33.34943 -37.35244,43.05188 -50.92953,52.24538 -24.36127,14.98909 -67.856632,-3.96726 -98.118803,17.55055 -29.571591,5.65541 -49.298623,41.28481 -47.945729,33.593 -21.8774726,15.11759 -22.5569166,-88.51593 -3.731526,-108.06428 32.610787,-7.465 -13.6590342,-12.56153 13.411345,-18.749 C -15.077227,760.47702 2.0435728,679.498 3.8157437,639.09189 59.553171,652.87748 43.4653,626.82846 67.945764,631.3669 c -18.386293,24.48466 45.334226,15.35646 45.052136,-6.94405 21.38496,4.04202 76.79862,-19.03855 42.97953,15.96943 -28.37337,-13.62812 32.21158,27.60687 17.32554,-5.71235 18.47562,14.2613 41.07657,-25.94247 51.81028,19.29745 37.0629,39.51076 62.26566,-58.01998 87.89211,12.05122 24.06987,25.8139 74.97574,55.91306 44.67771,-6.84264 -45.40367,-14.02407 -8.27141,-5.00301 -12.2628,-38.49384 -30.71824,30.97112 -46.2655,-44.67466 -2.74487,-21.39546 29.05755,-7.37834 47.60079,-0.91449 44.65617,21.5927 25.8654,-23.41586 61.60751,-26.83393 89.82182,-25.10197 -60.78443,-12.02812 -124.11472,-10.37404 -186.10687,-17.8943 -68.62544,-4.8514 -107.51241,4.15163 -180.67932,0.84586 C 60.689628,572.99318 -30.67608,595.54469 5.0003549,513.98994 1.7756671,476.20166 18.279899,558.6339 15.087945,512.79746 -8.1723429,495.67578 -0.40438484,419.00459 2.8548215,377.75156 c 24.4952825,-1.53262 40.9756925,8.61484 25.0321025,-6.93717 36.547636,2.13239 58.362979,-18.1024 101.812896,-15.72807 69.39623,2.02018 131.64969,-40.64384 199.78307,-49.78613 61.83911,-33.57014 132.40593,-40.32406 195.95567,-69.37528 45.38427,-10.65669 97.56334,-67.79618 124.96689,-70.14355 -23.51524,22.41819 -39.19428,52.8944 -3.35562,13.33049 37.9542,-20.26983 6.07025,9.19026 31.28549,3.17408 47.65121,-30.75875 -38.69633,77.55997 24.16216,25.5692 31.37249,21.0011 102.97465,-66.87478 50.47487,-19.47429 34.79253,-21.44977 42.72487,8.39533 29.69351,33.6929 -13.00369,19.17508 44.10034,23.72847 6.67593,49.91653 -11.82735,-26.18463 -49.73641,22.13205 -29.78673,-17.38691 -29.5932,28.72612 -28.2041,35.82343 -22.83815,7.4934 -25.26792,-14.48884 28.3937,-53.19592 -14.61524,-30.79391 -15.97974,38.54567 -4.13136,-10.76528 -6.29947,-10.71623 -60.04852,-22.10862 -50.69445,94.93431 -114.424,91.9848 20.35902,34.27367 91.93023,-85.05118 89.71226,-11.92761 14.94645,15.56452 -29.19445,40.81266 -5.00064,49.7449 3.87322,-29.2166 21.56624,-38.88763 30.81365,-16.36685 19.08625,-22.87492 15.55412,28.5599 30.77472,-14.69162 4.55663,22.55877 18.51625,-18.27753 19.05799,17.9637 23.09902,25.25484 -12.36733,-39.09906 8.98422,-5.029 0.66006,-39.5065 8.66886,36.60713 11.50543,-12.27933 7.1242,-0.26814 17.77695,39.63224 31.45448,9.99797 29.54275,-7.50086 7.41716,24.59955 -0.34215,-25.58141 -47.81502,23.24223 23.64405,-28.86302 -23.02323,-14.04351 12.76835,-27.79479 10.03857,-100.74609 40.69161,-35.02527 3.18469,36.31763 -18.96063,20.47605 7.92185,59.64694 40.0826,18.38551 29.97378,25.7302 45.28677,14.85646 27.37115,1.38059 10.97201,-35.11329 42.61129,-16.36355 -22.39906,8.75692 18.30589,-9.36553 27.88174,5.08026 10.7479,-11.32255 49.11071,30.08337 59.07041,12.02972 46.2917,-15.71747 49.5676,3.25025 78.6043,-11.84185 26.9713,22.79506 30.479,-2.4162 15.2161,-7.23231 33.8866,1.22581 16.8356,22.99281 25.0973,15.9985 24.6331,20.31013 40.5164,11.02272 35.9765,8.36435 33.377,7.51266 91.0136,-12.85137 17.7719,-25.29581 67.6011,3.03641 -77.9592,-11.66393 4.4712,0.14193 40.1211,0.76897 63.9181,17.438 89.5109,13.74966 12.9884,-11.54704 40.5291,11.59091 46.4767,-3.08225 29.6491,-18.36418 64.8125,-28.5999 110.5638,-17.04419 33.1355,17.40349 57.6544,-35.29067 89.5601,-8.39634 22.0592,-20.84953 74.2922,11.7731 63.7727,-37.87042 -0.5156,-86.02483 -1.0322,-172.049662 -1.549,-258.07449 13.3546,33.245035 2.3639,72.900975 5.7489,109.02595 0,319.21358 0,638.42717 0,957.64075 -14.5083,-25.2522 4e-4,-59.7085 -4.9786,-87.91916 z M 889.65322,787.5311 c -9.01851,-8.30311 48.05718,-5.39707 -2.1782,-16.87071 -33.09382,-23.22798 -39.37276,12.92616 -59.60823,-1.66304 -6.64085,11.08192 -4.26671,17.86501 31.21267,17.52189 20.03398,-7.47706 14.08804,-3.17144 30.57376,1.01186 z M 74.758985,755.22215 c 10.171907,-21.55545 61.599215,-0.84286 7.403059,-21.00853 -64.38052,-2.3039 -26.858261,6.11322 -7.403059,21.00853 z M 1246.253,717.56107 c 54.9883,3.41693 -51.0661,-74.18124 25.423,-51.23708 21.0975,-23.68355 47.815,67.26003 50.3203,6.6162 21.9351,-22.99747 50.4622,36.24398 79.1045,3.84216 35.5777,24.11052 74.565,10.14291 103.4833,-4.96378 34.4795,16.56532 -15.9248,64.52294 44.7842,30.81643 36.1833,0.0531 54.5141,15.10614 45.2988,-34.98614 16.4026,-57.27959 -55.9093,-47.30485 -78.7508,-35.64881 -48.1401,-11.06793 -117.1994,-17.73225 -176.3757,-2.14123 -56.1309,22.48772 -102.8744,-42.67616 -144.7612,-2.4183 -50.0126,17.23299 -58.2498,-11.50157 -86.6404,-14.29499 -9.3792,52.87993 -99.8718,30.11236 -84.803,0.89167 -42.74221,-49.18142 -43.40327,54.21984 -76.75131,-2.11913 -13.85977,18.61968 0.30135,56.04451 -28.81608,16.13385 -25.05374,9.47157 -16.98782,23.48086 -42.8354,13.0017 3.15792,45.45311 116.4264,-0.39908 99.67488,3.57689 -16.38556,60.76096 95.01651,37.29767 84.98021,33.76164 53.2263,13.10808 110.0432,2.23975 156.5914,14.94133 6.4242,10.03298 14.9368,27.88685 30.0733,24.22759 z M 1222.0369,688.296 c -28.363,-6.38978 -75.5516,-22.20817 -24.1282,-36.67337 15.1082,6.97075 -22.2804,31.5246 18.3207,18.01066 23.8792,-7.76832 5.6405,22.34629 5.8075,18.66271 z m -797.16865,1.04097 c 25.64554,-5.11885 17.09063,-42.16856 25.70621,-21.52294 12.27236,-38.80842 -95.42734,-23.64045 -39.62502,3.93038 29.75327,-8.44762 -13.71203,17.62089 13.91881,17.59256 z m 181.79842,-27.33692 c 22.87079,-16.86881 -17.31715,-64.63453 -40.83449,-43.67355 -36.60752,-2.43602 49.76573,32.43247 -5.21066,38.41253 13.75009,3.5024 32.95689,13.9155 46.04515,5.26102 z m 197.02616,2 c 38.35139,-4.28946 -23.42471,-68.19765 -12.70929,-17.18742 -25.56787,4.15957 17.35892,-9.20202 0.47214,17.2936 z m -200.3595,-64.37252 c 17.35146,-29.04216 -111.34501,5.89899 -59.22233,-10.84924 -29.79864,-10.50908 -88.77675,11.12351 -24.86204,8.42804 28.04758,-0.82903 56.60642,-6.38477 84.08437,2.4212 z M 1526,597.33338 c 3.5302,-39.04889 10.7747,-15.80822 31.7463,-36.93354 -32.5153,-12.17867 51.978,4.93991 5.5108,-3.95532 36.462,52.30351 5.1742,-74.93594 22.7807,-72.7043 6.4201,-24.10301 22.0913,-73.45239 -11.1191,-51.64059 -8.3158,-36.01502 1.3465,58.47966 -19.5388,13.00065 -7.7095,17.03064 1.7789,-8.60328 -23.3628,7.55988 13.3282,1.47906 0.7466,-41.11906 -8.9302,-61.90398 -3.5291,26.87244 -0.093,47.3606 -15.9321,20.37745 -11.0855,8.73653 -17.3848,-33.43346 -30.1599,3.91482 9.1087,-21.96554 -36.6149,73.7015 -17.1724,18.27471 -18.0685,-0.78197 -2.5781,-45.53278 -26.1255,-14.7312 19.1126,7.53445 -22.3096,16.29868 -19.4715,-8.58893 -1.3518,31.65576 26.6355,15.91606 11.023,30.66372 -4.6038,28.37443 -41.6239,-17.78639 -33.3127,16.91316 -24.9362,4.94742 -6.4883,-26.83529 -13.6194,-46.95262 -18.9081,-23.41109 -6.4493,5.94868 -7.6501,25.08747 -31.3257,6.55096 -51.1677,-35.78655 -13.868,-11.24972 -0.5118,19.08613 12.2558,-14.80872 -4.2324,-13.13208 18.4659,-28.06752 -25.2544,22.4843 -32.2555,16.67058 -1.2018,28.46275 -27.5712,7.45835 -19.5035,9.71101 16.2773,-28.4511 -57.5138,36.63512 -18.8578,-10.18316 33.6456,-26.21593 -29.3695,-30.66289 8.4897,-14.54106 -22.7604,31.71668 -21.8979,4.2439 -39.2427,-12.76803 14.6409,55.59954 10.8924,4.7547 -4.866,29.29334 22.8138,13.01738 -41.6559,22.59349 -8.3305,-4.09748 -19.788,-1.04088 -19.5885,46.70263 -35.9862,11.22051 -13.5376,23.65412 19.0919,-36.84556 0.5111,-10.23345 -17.5218,-22.53838 26.9395,-6.68131 -2.4412,-26.95754 -10.1247,8.69337 -16.7098,-1.74717 -16.6872,38.665 21.2033,34.19454 -17.0416,10.74769 -2.5813,-23.75495 -42.7064,-0.83107 -12.3798,7.27145 -8.7791,16.26167 -36.5171,-4.90947 25.0528,43.83048 -12.0357,29.64069 20.1554,16.87922 -10.5245,22.08004 23.864,2.12623 -26.4046,44.46451 9.277,7.76186 26.9932,5.0476 9.7189,28.98557 -18.2072,-16.50539 -9.4571,17.69686 20.5858,-4.19275 -24.3036,13.69521 12.3054,10.29843 10.0615,28.27787 13.2925,66.40439 27.5383,44.35343 35.5416,-13.08073 19.6635,-7.86109 16.3775,10.58722 8.675,16.79298 27.0126,-10.08402 26.2795,26.1051 22.4693,-6.44088 15.3742,-18.36526 39.9974,-8.39987 -44.7726,12.30947 23.5489,2.05989 27.858,9.48284 7.3384,24.71797 65.7303,-5.92281 94.7851,0.0813 2.731,22.50356 63.0129,-5.62696 71.3694,9.16994 -35.6296,8.00949 -4.3725,5.73087 8.0893,10.52425 z m 43.1754,-42.33334 c -33.1981,-14.40095 5.2139,-19.1447 -27.8649,-36.99996 -15.645,-45.71465 32.7261,3.68704 16.6822,-39.78205 20.4883,19.31978 23.9021,29.07 30.0073,25.67301 3.2772,30.31968 -34.0161,7.36692 -24.7707,32.79496 8.5566,10.56337 39.5997,18.98687 5.9461,18.31404 z m -107.8421,-28.90476 c -3.5612,-19.88212 3.6337,-31.67051 10.6667,-55.42855 5.0794,18.41762 13.9362,44.09392 -10.6667,55.42855 z M 1364,460.54188 c -16.8191,-42.132 -48.1964,20.25727 -34.8057,-29.35281 13.6348,9.29429 51.2044,-0.44452 34.8057,29.35281 z M 702.66667,581.93629 c 61.61324,-2.59382 71.33475,-8.59374 127.05494,0.0852 35.28001,-16.5289 55.97053,-39.22482 78.95054,-1.02065 16.51267,-4.19464 68.22767,0.0468 85.85863,-21.20374 -11.19706,-43.42247 80.67842,-43.81875 40.79702,5.55348 5.771,42.3263 14.1034,-111.12342 17.6395,-48.2564 -14.0203,58.09854 40.2025,58.45675 62.0296,31.38427 -3.1717,10.0645 38.6256,-38.12969 6.8346,-19.77006 -24.4179,-0.58237 -27.1603,31.13193 -24.1412,-14.77476 4.0161,12.55132 54.0005,1.87009 37.6428,-18.41586 -14.2494,20.25365 -47.7481,-0.98165 -8.4235,2.15878 -3.8143,-8.8659 -7.6601,-47.57127 -0.9671,-38.91787 36.9687,-44.73071 -21.6225,-5.97167 -8.3429,-40.09184 -3.6149,-17.66301 -3.835,43.70655 -14.4804,1.16514 -0.3765,31.0036 -1.744,-26.69449 -18.8211,-15.24372 -1.5546,-16.8122 -26.2686,11.01424 -21.8171,-16.92396 -23.1875,13.04816 39.0906,58.75496 -7.9818,21.75066 -4.0388,12.16553 -9.0871,33.799 -23.5225,24.39371 -3.8419,60.91592 -3.9026,-1.9233 -19.0756,-16.55177 -5.5405,26.19562 -4.0732,-21.80312 -22.58878,10.43211 -26.98697,-46.83259 5.97664,66.16025 -23.75466,0.63497 -0.65485,-2.51544 -12.41917,4.65822 -17.31013,-17.43381 -20.44044,39.53311 -24.00564,-33.75726 -22.78661,21.37258 -17.15611,-4.84034 -25.22829,-12.60219 -31.98257,13.0725 -8.3193,-14.85303 -0.205,9.75184 -16.91515,-2.33526 -16.40354,-11.91533 -12.48595,-39.7368 -12.4024,-13.8625 -15.37884,-29.03617 -15.97412,-40.58058 -16.60404,6.16605 -22.45552,-17.19009 -24.7399,-51.0191 -28.96435,-19.09674 30.30055,31.89506 -17.94099,-5.96858 -17.92236,29.52235 3.06637,-26.08327 1.50932,-83.72284 -8.27667,-23.44093 -43.04384,19.04455 -4.95843,-35.51057 -34.91035,7.34514 -9.78226,6.06143 -7.5801,71.0708 -11.31273,16.61142 11.6156,-6.50148 -17.55375,-16.45913 -15.85568,-18.55554 -1.18687,-37.12512 41.47403,18.19721 14.87968,-26.40723 -26.85954,33.01269 -25.66791,-40.91277 -24.33758,12.718 22.61954,58.06366 -32.29397,10.79507 -16.93583,20.66667 -9.45373,28.70551 -4.22402,65.38404 -13.79321,37.36319 -31.3895,35.43741 -2.58308,-67.78665 -29.30926,-3.63785 -1.3588,67.87263 -8.76403,-78.9588 7.60587,-41.85943 16.38711,-3.22764 -0.40124,-36.7811 -10.61431,-11.7175 -22.99293,-44.13406 3.56348,49.93348 -20.76971,-3.23939 9.76303,-12.49031 4.04581,-68.92144 1.17593,-24.13514 -7.48797,-24.11908 -48.01293,-31.51588 -18.64137,2.19671 -1.07705,35.81525 40.18666,51.29781 16.41308,57.99718 -5.76717,-25.90611 -15.39153,-6.84365 -31.64226,-33.09326 15.95712,13.58568 -18.17194,83.15318 -12.86114,27.8637 27.91193,-31.28047 -15.93433,-80.18187 1.40111,-89.20376 -34.36353,-36.40003 10.85246,84.08289 -20.63286,75.72197 -9.0796,6.00986 8.62185,97.35402 -18.9997,103.78777 18.24169,-21.72112 -13.66514,-133.00122 25.94665,-114.04416 -14.58844,-18.99665 5.71757,-33.85249 -20.15938,-13.22135 2.97046,24.13579 -16.54735,22.66373 -3.03364,45.83974 -17.72412,-32.03863 -4.39213,29.60209 -4.41638,27.01953 -28.14742,-10.08606 -34.87992,-33.15822 -47.89853,10.68937 12.79857,38.04096 -39.91913,8.30218 -19.27034,-9.09015 1.33858,-52.80729 3.25407,10.46383 7.33342,-10.09126 22.79901,-51.20844 -27.40894,-43.61756 -11.83613,4.9817 -14.06927,4.78855 -7.86401,-29.71893 -30.60626,-5.95753 2.655,-30.8258 -12.43397,-37.62622 -12.64625,-6.83674 -27.98084,-17.28551 3.48968,-65.72731 23.80141,-45.44493 20.18005,6.7503 41.45593,-9.18479 42.78662,10.23113 18.11489,-25.38636 -6.82953,-35.54823 0.14437,-12.57493 8.48643,-38.98112 -21.79743,-65.02947 8.74716,-82.40227 -1.5207,49.14482 8.12812,29.16488 6.64107,-3.23239 40.13113,-21.4469 -40.32926,-41.15446 0.99291,-5.41122 15.02824,2.56683 -19.33451,-5.23851 -18.55278,-7.99507 -4.52099,5.36689 -14.9626,136.91889 -20.4209,58.77649 10.21946,-23.8224 2.06931,-57.47995 -3.15201,-20.2801 -14.81253,4.25731 -1.83443,-60.43547 -20.74266,-10.47744 3.29999,29.009 -13.08124,-27.78576 -6.89829,18.14405 8.35954,33.69351 -4.75158,47.92784 -24.82784,19.24211 13.75512,33.16831 -4.03663,20.79593 -9.68384,0.82704 22.66725,46.08275 -4.00495,65.87287 -51.17546,57.04874 -17.33047,50.89342 -28.9318,-60.87342 -26.6568,14.33694 -14.39157,-20.8771 -15.24465,-22.02543 -5.46959,16.44303 -21.59147,-27.66455 -28.92399,37.49491 -8.28037,47.61411 -7.16658,-24.9165 20.08937,11.62987 9.54172,-28.29249 17.24066,-29.43754 19.79136,16.893 14.63226,14.64282 -21.39614,16.8767 20.27199,48.50098 19.56921,18.8516 5.71275,37.68567 1.48649,25.62201 31.6997,17.46549 -17.75678,22.0836 65.713,54.88982 42.58799,20.72307 2.09317,-29.13572 6.18728,-130.44693 4.35644,-45.24325 12.64672,13.76903 11.87849,8.47116 -3.46677,43.80348 17.09278,-5.7214 9.38912,28.0114 15.72539,0.96113 8.7741,39.62671 48.40078,-19.31954 37.41015,-24.30996 5.75319,-11.32245 23.95219,-13.87924 25.11332,-52.26617 -2.63119,42.63228 -10.27462,113.72252 33.27992,63.82634 36.65359,-5.09372 -1.22204,33.53725 44.06781,24.87545 29.51508,4.57433 64.65355,-15.28068 89.03565,7.73478 l 3.84878,3.30236 11.34543,-0.98365 z M 542.14987,444.70831 c 20.41932,-38.3242 -19.22182,-71.98887 23.0153,-97.87345 3.14866,32.33225 8.58867,-31.08557 25.54188,-32.41737 39.07767,-19.77124 69.69626,-67.3816 28.68564,-48.35273 -23.14263,-19.3536 65.76729,-9.68175 33.03837,-42.76028 33.39156,-11.54853 -0.80977,-46.63482 -9.63596,-11.06487 -32.9855,13.35989 -9.50454,37.62023 -40.25606,33.14153 33.22412,-59.71081 -71.69297,46.91976 -30.46775,-22.40268 -4.73715,9.82786 -59.98993,51.65298 -3.92719,29.05695 83.81898,-34.80055 -89.71078,57.99164 -8.16833,26.86486 45.85903,-27.79455 31.85435,-2.64639 6.01902,19.37571 24.72729,-0.0367 -4.64703,40.56854 -0.56441,30.39403 -13.55269,-58.55051 11.9994,45.3338 -8.43039,-0.39247 -16.1758,45.70266 -19.01895,-20.6914 -19.04177,21.97868 -15.21411,-2.08119 -11.39515,-17.56729 -9.20744,16.04461 -27.56476,9.36028 25.90496,21.43668 10.0096,58.69927 2.83491,0.39958 -5.99133,26.64039 3.38949,19.70821 z m -164.1782,-42.20243 c -6.99823,-20.97367 14.11876,-86.27812 -28.1092,-56.63289 -21.58521,-13.85985 42.92183,55.49107 28.1092,56.63289 z m 266.67889,-53.19859 c 5.13234,-59.89391 11.92035,28.0326 21.83531,-23.51398 -2.76706,-9.17166 -28.15331,-1.36593 11.13619,-7.15608 4.28734,24.0509 4.80744,-28.25665 -35.20768,-3.88516 -42.67164,10.67826 23.50623,-1.904 -1.37074,14.65103 -3.24091,-24.19219 -24.48914,25.12759 -0.87645,5.69581 7.62815,1.87872 -1.51337,14.29785 4.48337,14.20838 z M 388.46667,328.00003 c 20.25511,-21.38154 47.16206,21.98207 51.02398,-20.23663 35.96432,-5.68554 101.96347,-63.61954 41.34648,-22.9665 -34.07923,11.33573 8.03957,-14.18284 -34.57097,3.8122 -6.28204,19.07501 -120.47845,33.99332 -57.79949,39.39093 z M 758.05671,216.98342 c 23.81393,-12.66398 19.02869,-8.46915 6.20898,-23.07998 -43.59429,-2.4436 11.78705,22.69422 -26.36903,15.43119 -0.92007,11.52594 12.94493,16.42197 20.16005,7.64879 z m 87.90768,811.12888 c -11.90391,-15.2531 21.13813,-57.07539 -19.71584,-31.40559 5.40297,-11.80408 -50.69248,12.23409 -55.49222,-14.16616 -8.57076,33.04705 -94.50386,4.2513 -51.15878,-26.87376 -9.96671,-17.99566 -29.81259,19.98521 -8.86506,-17.42639 25.8135,-5.77471 24.81034,21.9922 43.47076,29.50067 27.40051,-10.01618 55.08738,8.12154 92.67362,0.39867 -6.58533,9.66153 40.43297,-29.42975 49.57217,7.37684 41.27497,7.63013 60.68784,-7.22487 80.55096,-9.73288 -5.27529,24.33494 -36.02534,10.76395 -20.6352,29.86845 -17.69179,-19.0934 -28.69636,20.29925 -40.62296,-6.78203 -15.74481,25.07488 -49.56951,-1.70361 -39.25567,25.33148 13.95351,9.0136 -31.97528,15.6874 -30.52178,13.9107 z M 657.68887,931.96674 c -21.29972,-33.0011 -86.07176,-44.44137 -35.92491,-53.45379 17.3362,39.36553 65.82489,40.81585 35.21787,-6.47251 20.73544,-9.72152 47.28789,65.39667 22.63303,48.44197 -6.07207,12.47216 -10.98919,-2.21279 -21.92599,11.48433 z m 183.15175,-8.09691 c 23.78791,-14.91812 6.81522,-69.06438 34.29494,-39.14487 -7.08489,14.30301 -25.495,45.88205 -34.29494,39.14487 z m -60.99851,1.8756 c -4.77906,-15.13333 -28.09719,-61.42278 -38.7069,-27.69937 28.14194,36.87086 -9.89551,-25.30383 -17.03079,-13.44135 33.00739,2.74796 -19.18103,-40.61868 27.67195,-34.11977 11.04843,-7.44172 54.03628,18.31481 31.57142,31.05132 -24.15497,-41.18359 17.35028,42.02299 -3.50568,44.20917 z m 152.23242,-13.69524 c -31.92608,-22.51308 -45.66588,-32.47474 -10.55072,-48.05012 -4.08982,53.82799 12.04091,-19.49629 39.80952,0.66666 24.26413,-30.2033 23.22958,0.66066 48.10677,-11.50904 -27.2299,13.86114 -31.59138,29.59753 -46.37274,52.4781 -10.02702,3.44609 -20.58102,4.74604 -30.99283,6.4144 z M 1290.1233,296.09751 c 28.1027,-28.40906 86.5842,-27.31613 95.2252,-5.42565 -31.8816,-7.5318 -63.3314,6.87013 -95.2252,5.42565 z m -168.79,-16.29347 c -17.3702,-6.80065 -138.75247,-2.08946 -78.6074,-12.13261 -52.91408,-47.56321 75.4054,-11.25715 104.7836,4.21194 33.7039,9.63304 -20.7748,4.09601 -26.1762,7.92067 z M 976.6837,261.36091 c -17.02196,-23.50229 -18.86371,-19.86447 -30.14723,-26.82662 10.48887,-3.52341 -40.41462,-21.33519 -20.88894,10.20802 0.74343,4.44278 -53.28441,-24.20722 -1.33156,-28.43296 5.15979,-56.24101 107.12613,20.627 56.06718,-3.33744 -14.80658,31.10814 55.37695,29.23749 29.80465,41.95258 -17.81835,2.32803 -17.75195,-4.00809 -33.5041,6.43642 z M 881.6,257.06669 c -27.31514,-21.51731 -24.1021,-54.12794 -31.60704,-76.87082 26.2107,22.2546 43.01132,59.72561 31.60704,76.87082 z M 330.66667,156.02946 C 255.19584,148.0431 179.93331,139.61251 104.79124,130.00866 50.744676,134.40471 -25.103384,128.96881 0,55.417665 -9.0012903,7.8706516 7.7317843,-13.930103 60.208325,0.01866751 553.91664,0.13973999 1047.6259,-0.49073999 1541.3333,0.76190482 1490.2615,23.922298 1437.8536,26.638407 1385.3778,44.41439 c -55.3161,33.100853 -114.8151,-2.659816 -157.2256,35.585616 -54.1911,29.381744 -129.9166,23.735704 -197.8246,33.997604 -75.8876,8.43772 -153.16717,9.15716 -229.17928,12.36054 -57.7777,-11.07149 -118.41103,-16.4334 -175.91974,-10.32048 -57.82921,28.12906 -126.92044,20.46165 -192.10526,37.10215 -35.79227,6.97919 -68.82644,2.99284 -102.45665,2.88964 z"
         id="path3" />
    </g>
  </g>
</svg>
