<?xml version="1.0" encoding="UTF-8" standalone="no"?>
<!-- Created with Inkscape (http://www.inkscape.org/) -->

<svg
   version="1.1"
   id="svg1"
   width="1254"
   height="1254"
   viewBox="0 0 1254 1254"
   sodipodi:docname="temp_outline.png"
   inkscape:version="0.0.3 (0d15f75, 2025-12-25)"
   inkscape:export-filename="temp_outline.2svg"
   inkscape:export-xdpi="96"
   inkscape:export-ydpi="96"
   xmlns:inkscape="http://www.inkscape.org/namespaces/inkscape"
   xmlns:sodipodi="http://sodipodi.sourceforge.net/DTD/sodipodi-0.dtd"
   xmlns="http://www.w3.org/2000/svg"
   xmlns:svg="http://www.w3.org/2000/svg">
  <defs
     id="defs1" />
  <sodipodi:namedview
     id="namedview1"
     pagecolor="#505050"
     bordercolor="#eeeeee"
     borderopacity="1"
     inkscape:showpageshadow="0"
     inkscape:pageopacity="0"
     inkscape:pagecheckerboard="0"
     inkscape:deskcolor="#505050"
     showgrid="false"
     inkscape:zoom="0.45505197"
     inkscape:cx="616.41311"
     inkscape:cy="717.50046"
     inkscape:window-width="1920"
     inkscape:window-height="1009"
     inkscape:window-x="1912"
     inkscape:window-y="-8"
     inkscape:window-maximized="1"
     inkscape:current-layer="g1">
    <inkscape:page
       x="0"
       y="0"
       width="1254"
       height="1254"
       id="page2"
       margin="0"
       bleed="0" />
  </sodipodi:namedview>
  <g
     inkscape:groupmode="layer"
     inkscape:label="Image"
     id="g1">
    <path
       style="fill:#000000"
       d="m 612.35796,1182.2278 c -19.80506,-43.3073 6.36127,-98.5794 -25.24016,-139.9214 -20.59226,-25.3269 -39.11057,-93.49916 8.97754,-61.94338 C 592.34392,942.27833 511.91743,952.76178 486,978.5057 c -58.37023,32.1696 -48.37233,-71.7374 -56.00008,-106.72209 -5.74748,-24.17932 29.338,-96.1565 -17.22743,-57.8809 -63.08471,24.76869 -121.01917,62.42945 -183.52624,87.29192 33.45619,-23.69339 79.4304,-40.60584 117.25375,-62.11833 51.29481,-19.7455 100.71102,-40.26953 109.52601,-99.8845 40.80903,-38.52607 34.38599,59.53848 39.04807,86.2662 14.69143,47.65568 38.19636,103.97516 84.12627,127.63439 30.5384,8.09942 55.28695,64.00381 77.22388,62.21431 10.50836,-40.05835 48.6668,-49.10116 75.55011,-68.10462 45.07814,-19.0844 61.18014,-69.65393 85.75467,-109.72377 36.90203,-45.93222 23.2494,-99.70657 5.76822,-149.46959 -7.62096,-20.7656 -0.80393,-75.13287 1.46865,-21.08747 19.06927,30.52681 57.60416,55.02475 60.78543,99.33886 19.90351,32.51764 63.46595,22.66577 89.19823,50.9606 68.30006,30.83903 141.10326,51.59813 207.68336,86.15046 15.2751,17.92051 -46.9016,-22.01974 -61.6597,-23.22272 -53.9942,-21.64051 -109.8114,-39.96209 -161.49811,-66.60523 -21.29019,-21.24484 -72.23429,-35.01126 -42.48846,9.58167 0.80266,52.18233 9.26086,135.09754 -57.55886,149.85992 -43.82656,16.5914 -91.0926,-47.93767 -110.22875,18.63234 -16.96058,35.97935 -79.19985,47.57365 -78.29269,86.52145 32.73707,55.783 -67.89894,6.1018 -19.18322,-7.7852 19.31886,12.1738 28.72268,-40.287 55.03506,-43.0944 41.42077,-20.308 55.19898,-109.81005 109.74183,-59.65667 55.43332,19.2477 102.50402,-32.42541 95.02276,-86.49596 15.21116,-53.41978 -18.80946,-95.38673 -38.63667,-139.18692 0.39947,-32.32932 -68.99491,-81.59557 -35.92652,-19.41945 31.38755,52.09684 -10.14969,105.33026 -33.77671,150.77558 -19.30125,42.67973 -51.95699,78.77701 -95.80485,90.9608 -49.19358,22.29707 -51.41213,82.10092 -78.61852,121.64412 -14.23341,25.4352 15.49322,90.6257 -16.40153,96.3473 z m 7.62709,-6.74 c 0.1046,-43.3973 -1.48296,-101.9747 25.00313,-129.4878 -16.0674,23.0562 14.79272,-37.8333 -13.28877,-42.733 -10.07548,-29.10195 -83.75605,-26.54422 -55.52353,6.7875 40.49828,49.1876 27.22917,113.0906 39.59299,168.7014 l 2.12591,-0.3761 z m 50.33069,-75.6375 c 12.02807,-47.6802 -50.32617,6.1527 0,0 z m -18.73152,-17.3436 c 3.7971,-22.4948 -22.14894,6.4501 0,0 z M 584,983.08889 c -14.95585,-17.79952 -22.32556,0.0418 0,0 z m -112,-2.41358 c 17.72321,-23.70278 91.69663,-42.85846 85.3855,-34.08678 -39.5017,-43.3772 -72.51315,-99.19491 -69.77097,-159.70372 -0.4194,-32.84076 -17.33446,-81.76481 -37.8451,-27.28061 -8.3265,30.37254 -9.78538,61.72022 -14.20882,92.74006 -1.34358,43.20167 4.15489,87.48512 19.56592,127.79119 4.21572,4.67472 12.16449,2.72759 16.87347,0.53986 z M 610.89526,809.49592 C 543.71744,791.70438 491.61657,739.13488 447.97132,687.67581 c -23.12994,-32.18785 -31.19006,-68.8221 -54.58471,-93.97532 0.11593,-47.9763 -32.09763,-95.3959 -35.2178,-144.99026 -3.45033,-28.59792 -23.93601,-53.41221 -18.68678,-83.21023 -0.49649,-34.86728 -22.32759,-72.05812 -0.85302,-100.80987 0.77487,-36.88333 37.13157,-78.80854 64.5873,-109.21085 40.14291,-19.2691 49.39665,-76.507895 99.53214,-82.191156 65.09423,-18.930545 146.14178,-0.866081 180.93858,61.667136 54.46388,3.67138 97.01392,47.94404 123.35381,92.34448 14.8263,44.51068 22.98665,92.69411 22.51409,139.98898 28.47853,22.7929 35.62203,77.87479 33.7292,116.63634 14.32928,28.12889 -16.59744,82.92706 -25.78281,57.89732 39.1883,-1.90697 15.4793,-72.56906 19.63244,-102.3206 -6.0926,-28.9555 -20.10661,-85.77918 -42.41801,-49.15563 25.23843,-43.35179 -0.93996,-94.91006 -4.10093,-141.39195 C 793.62843,200.07995 751.30064,157.06902 701.50945,142.33793 656.6594,127.82094 628.22004,64.96119 568.7979,71.906722 517.31401,67.548399 456.93213,83.901955 435.83999,136.33071 c -37.44807,23.39868 -64.49,59.66079 -82.78755,98.06563 -18.75874,19.34472 -7.35379,44.79272 -21.76161,69.87433 16.27747,53.12377 19.51587,109.25006 32.84179,163.59954 19.51052,21.86922 13.48665,84.67644 32.44468,92.36364 2.1532,-57.61147 -30.88115,-112.93616 -14.80555,-170.43385 -1.83204,-24.77556 -1.92543,-62.97943 0.84753,-80.8 -27.99392,3.47542 -41.34093,-9.71467 -7.13227,-11.55368 17.7478,-43.65111 0.209,-103.80185 49.20506,-135.12601 33.05259,-34.15814 63.4758,-82.27759 117.59517,-80.401691 58.01752,-12.220581 66.79918,61.665271 107.54175,79.077441 49.84772,-6.85662 71.11001,51.5436 81.29045,94.46258 12.08766,27.55689 10.34877,60.22117 44.216,74.58555 28.21838,28.27827 25.83278,108.38034 44.25889,120.70001 -8.25008,-30.42355 16.26068,-85.29238 30.16091,-26.14505 12.88466,21.24631 8.77,86.24389 -7.64099,84.90532 6.45318,-32.542 -29.99809,-38.21685 -15.48331,-0.0571 10.65884,59.53845 6.19595,124.7016 -32.77205,173.74098 -40.48805,54.62761 -84.1863,127.78033 -161.2386,127.73429 -7.26152,0.0581 -14.55183,-0.15189 -21.72503,-1.42673 z m 43.713,-4.93328 c 67.8386,-17.2554 105.23401,-83.45251 143.47645,-136.49992 37.48629,-51.80737 29.82017,-117.63804 22.34982,-177.13215 3.2518,-48.28901 38.53757,38.5791 32.39096,-21.60176 6.33688,-24.1818 -25.90041,-100.96118 -28.71269,-39.02841 8.49874,43.50284 -19.77402,32.85631 -20.35588,-3.3329 -8.59424,-47.58237 -20.56217,-96.56557 -64.35768,-123.66826 -17.05045,-42.72103 -16.74,-100.00325 -55.72831,-131.07503 -46.90794,-15.5006 -85.49687,37.36762 -132.88679,33.51666 -25.12213,57.80621 -126.0345,-13.6526 -128.00347,68.87822 -18.84591,30.4798 -54.87646,52.46803 -35.6739,96.72366 -13.60314,55.16106 5.66092,108.71225 11.76437,163.15728 5.21085,32.96752 -6.93194,74.47316 20.45198,83.5 20.05326,75.34122 85.18206,127.18588 146.91217,169.18854 26.50949,15.8259 57.7145,23.67831 88.37297,17.37407 z M 577.5,658.40498 c -19.10794,1.68758 -91.94217,-29.94649 -71.82677,-34.57313 67.15155,-3.24145 132.97133,-26.92824 199.60869,-38.17234 27.82161,-7.89116 -29.6014,45.65772 -43.29664,54.04997 -25.07443,15.5933 -55.53756,19.35931 -84.48528,18.6955 z m 26.64405,-5.44852 c 35.13196,4.31909 98.85459,-42.1077 91.53621,-60.56129 -60.14317,11.75117 -119.34639,28.05264 -180.09287,36.94879 24.56415,20.22357 57.32882,27.64084 88.55666,23.6125 z m 127.44031,-62.81997 c 20.53193,-47.0556 -92.53269,-68.34845 -79.53094,-68.53494 9.39487,32.9009 -41.92142,28.36326 -56.51891,52.93144 -29.42167,6.62282 -100.3516,-11.04084 -49.83918,-40.53299 15.29095,-32.50952 -11.63035,-96.00342 -10.52325,-97.09335 32.36981,38.2938 19.0488,95.05789 -1.76267,124.10393 40.37109,23.04759 93.445,-3.38813 116.43933,-31.88833 -34.08323,-42.9189 73.27376,8.2418 85.84511,28.66331 2.99457,6.74388 6.68,32.868 -4.10949,32.35093 z m -312.60894,-94.6661 c 18.9392,-32.61683 57.30065,-76.70314 103.91697,-55.41955 -11.52539,-1.51847 -83.72498,4.46322 -80.01851,34.25412 16.03598,-28.66827 70.45959,-43.98697 86.09465,-15.10649 -27.8724,12.84291 -66.10875,1.88614 -88.45703,23.39931 -6.21955,3.22903 -13.52828,18.0805 -21.53608,12.87261 z m 52.93503,-29.10248 c 10.40291,-26.9953 -32.15862,10.64947 0,0 z m 17.76808,-3.40954 C 511.99869,454.5687 496.5096,440.925 489.11803,460 c -10.21594,-23.92797 -21.74856,11.93586 0.5605,2.95837 z m 27.69913,-6.39217 c 20.0575,-9.20688 -34.27766,-1.07688 0,0 z m -26.0036,-5.33496 c -9.57561,-8.29983 0.0952,14.62412 0,0 z m -40.85284,43.15667 c -16.69691,-11.5713 52.08662,3.55757 60.12376,-18.95411 34.39667,-8.92906 -53.39571,35.46156 -60.12376,18.95411 z m -41.32508,-44.9414 c -8.01971,-49.09066 107.25298,-65.91548 97.00215,-33.82866 -35.39718,2.99215 -73.65897,8.7006 -97.00215,33.82866 z m 24.55275,-23.74521 c 18.46708,-12.74224 108.15756,-12.08243 49.12364,-22.51431 -18.36151,-0.64391 -65.45424,14.11986 -62.05012,31.63791 l 6.19889,-4.90365 z M 662.38,447.54789 c 16.223,4.6364 101.90555,-31.58372 38.29239,-26.27874 -18.99068,6.27514 -109.75906,33.33293 -57.16827,-3.92929 21.14476,-25.82718 111.69523,13.27341 43.33837,-13.812 -25.61298,-11.16564 -86.71067,45.23042 -37.77316,1.29568 35.48895,-20.49492 72.89326,12.61531 97.45179,19.78462 -29.8096,3.2731 -51.175,34.89369 -84.14112,22.93973 z M 640.33587,430.5104 c 38.4201,-13.92169 -14.9931,-12.42166 0,0 z m 31.96672,-5.12332 c 21.0368,-10.90674 2.32377,-16.45272 -5.2052,-1.94818 -9.51755,-28.16957 -23.11949,12.51221 5.2052,1.94818 z m 22.11696,-6.73021 c 16.65217,-8.50427 -23.90318,-0.20407 0,0 z m -22.60713,-1.92138 c -4.08882,-8.59968 -6.11809,7.47768 0,0 z m -58.13475,-24.39116 c 14.68819,-44.85732 96.83872,-51.21038 128.35777,-16.94145 9.22492,23.82663 -49.39762,-18.76063 -67.62314,0.14485 -20.62277,3.97228 -40.25236,13.02937 -60.73463,16.7966 z m 19.83235,-9.90744 c 24.93017,-19.11518 109.46604,-10.82046 99.17203,-10.1146 -28.04335,-26.68168 -107.5845,-9.54637 -109.2955,13.3373 z M 360.72917,304.39583 c -3.9597,-2.10138 -0.93456,2.25342 0,0 z m 31.36486,-2.82149 c 33.34245,-17.79287 -11.3252,-101.53838 55.46186,-100.44747 23.59333,6.14823 89.71558,33.56937 89.46318,-2.25023 -14.43453,-46.12662 -61.26797,-79.3831 -103.09016,-38.44674 -55.4767,31.23155 -35.45725,96.3357 -55.78132,142.58723 4.42133,0.81719 10.20121,2.13517 13.94644,-1.44279 z M 416.29763,280 c -0.52836,-60.7505 55.90958,-58.38068 99.16741,-52.53291 46.45396,-18.52774 -36.79609,4.89586 -48.024,-17.49231 -54.70893,-33.76654 -71.50959,69.471 -51.14341,70.02522 z m 159.1848,-80.86273 c 27.67701,-14.78478 107.12968,-33.56755 39.96762,-58.4044 -14.22287,-56.336505 -79.04644,-68.345396 -124.51397,-39.11825 -18.17091,10.84874 -66.817,60.57705 -15.19403,34.72934 53.0236,-12.91506 42.60537,79.03555 92.64399,64.56251 l 7.09639,-1.76917 z"
       id="path1" />
  </g>
</svg>
