<?xml version="1.0" encoding="UTF-8" standalone="no"?>
<!-- Created with Inkscape (http://www.inkscape.org/) -->

<svg
   width="210mm"
   height="297mm"
   viewBox="0 0 210 297"
   version="1.1"
   id="svg1"
   inkscape:version="1.4.3 (0d15f75, 2025-12-25)"
   sodipodi:docname="test2.svg"
   xmlns:inkscape="http://www.inkscape.org/namespaces/inkscape"
   xmlns:sodipodi="http://sodipodi.sourceforge.net/DTD/sodipodi-0.dtd"
   xmlns="http://www.w3.org/2000/svg"
   xmlns:svg="http://www.w3.org/2000/svg">
  <sodipodi:namedview
     id="namedview1"
     pagecolor="#505050"
     bordercolor="#eeeeee"
     borderopacity="1"
     inkscape:showpageshadow="0"
     inkscape:pageopacity="0"
     inkscape:pagecheckerboard="0"
     inkscape:deskcolor="#505050"
     inkscape:document-units="mm"
     inkscape:zoom="1.4378367"
     inkscape:cx="389.82174"
     inkscape:cy="225.68627"
     inkscape:window-width="1920"
     inkscape:window-height="1009"
     inkscape:window-x="1912"
     inkscape:window-y="-8"
     inkscape:window-maximized="1"
     inkscape:current-layer="text1" />
  <defs
     id="defs1" />
  <g
     inkscape:label="Layer 1"
     inkscape:groupmode="layer"
     id="layer1">
    <g
       id="text1"
       style="font-size:16.9333px;text-align:center;text-anchor:middle;stroke-width:0.264583"
       aria-label="Hello&#10;My Name is Ken">
      <g
         id="g3">
        <path
           style="font-family:Ebrima;-inkscape-font-specification:Ebrima;display:inline"
           d="m 96.995374,52.996284 c -3.294413,0.113819 0.859206,-7.496336 -4.392046,-5.335852 -4.874664,-1.958953 -1.925607,4.181036 -4.00601,5.381323 -1.178223,-1.693243 -0.220421,-4.398723 -0.515077,-6.536166 0,-1.788641 0,-3.577281 0,-5.365922 3.169548,0.05461 -0.702113,7.372436 4.659953,5.147578 5.072702,2.445102 1.033028,-6.170271 4.251044,-4.628002 -0.0065,3.755629 0.0052,7.55549 0.0021,11.337041 z m 9.731686,-3.894328 c -1.99264,0 -3.98528,0 -5.97792,0 -1.563714,4.501552 9.00435,1.294195 3.33225,4.176076 -5.684717,0.689699 -6.677175,-8.952654 -0.7799,-8.982421 2.35489,0.0622 3.98533,2.59828 3.42557,4.806345 z M 105.338,47.952675 c 0.89265,-5.38519 -7.947436,0.603909 -2.07719,0 0.6924,0 1.38479,0 2.07719,0 z m 4.79556,5.043609 c -2.65363,0.01433 -0.87652,-4.079463 -1.35598,-5.991383 0,-2.181076 0,-4.362151 0,-6.543227 2.65363,-0.01433 0.87652,4.079463 1.35598,5.991383 0,2.181076 0,4.362151 0,6.543227 z m 4.10104,0 c -2.65364,0.01434 -0.87653,-4.079461 -1.35599,-5.991383 0,-2.181076 0,-4.362151 0,-6.543227 2.65364,-0.01434 0.87653,4.079461 1.35599,5.991383 0,2.181076 0,4.362151 0,6.543227 z m 6.28384,0.198438 c -6.27175,0.435359 -4.54489,-10.909193 1.30698,-8.80141 4.55965,1.145432 3.52602,9.228877 -1.30698,8.80141 z m 0.0992,-7.722511 c -6.86212,0.673075 0.69841,11.653023 2.71315,3.9474 0.32113,-1.724894 -0.63704,-4.118152 -2.71315,-3.9474 z"
           id="path2" />
        <path
           style="font-family:Ebrima;-inkscape-font-specification:Ebrima;display:inline"
           d="m 58.878913,74.358928 c -3.3114,-0.475581 -0.225198,-9.460365 -1.533371,-9.604796 -1.628138,2.704774 -2.512023,8.78291 -5.043448,9.148805 -1.331745,-2.729902 -3.467377,-8.699128 -4.124427,-9.439971 -0.538991,2.876398 1.259045,8.905923 -1.14339,9.846269 -0.541399,-2.3526 -0.103258,-4.970169 -0.243487,-7.440695 0.35361,-1.392986 -0.763205,-3.98276 0.662059,-4.50352 3.451032,1.119338 3.56073,8.798372 5.654148,9.213491 1.901395,-2.608199 2.231968,-9.117268 5.58525,-8.852084 0.400095,3.802456 0.0867,7.770342 0.186666,11.632501 z m 9.673808,-8.46665 c -2.201078,3.975005 -2.457111,9.693924 -6.235484,12.421603 -3.846554,-0.961456 3.36576,-2.002127 1.197963,-5.051582 -1.078997,-2.411999 -1.972715,-4.91312 -2.957841,-7.370021 3.30167,-1.115061 2.478319,8.08337 4.442783,5.828583 l 2.146984,-5.828583 z m 15.833628,8.46665 c -3.662018,-0.171678 -4.387238,-5.448087 -6.741102,-7.794648 -2.55441,-5.357129 -1.010147,2.965889 -1.432683,5.245583 0.962164,3.369647 -2.378482,3.007557 -1.346986,-0.152389 -0.08471,-3.049238 -0.0141,-6.103812 -0.03728,-9.155164 3.724076,-0.0153 4.371868,5.366445 6.700822,7.676005 2.613913,5.379028 1.048901,-2.835718 1.473757,-5.151592 -0.953949,-3.365667 2.382327,-2.957464 1.346195,0.177042 0.08471,3.048786 0.01411,6.104166 0.03728,9.155163 z m 8.987546,0 c -1.635547,1.022335 -1.251312,-2.931919 -2.482528,-0.181901 -5.179122,2.693172 -4.992408,-6.91712 0.219544,-5.031965 2.828198,-2.310333 -4.082826,-2.500962 -3.602048,-1.897923 1.461094,-3.582617 7.499008,-0.73093 5.865034,2.853973 z m -1.355987,-4.282935 c -3.406127,-1.268323 -5.372112,4.43396 -1.154635,3.058635 1.005618,-0.631043 1.278732,-1.956441 1.154635,-3.058635 z m 15.932852,4.282935 c -3.11561,-0.09198 0.77251,-9.606395 -4.80699,-6.598614 -0.92526,2.056972 -0.37652,4.401641 -0.52601,6.598614 -3.287925,-0.09237 0.96905,-8.772277 -4.415442,-7.080604 -2.086607,1.267237 0.387168,9.175711 -2.324779,6.188231 0.115125,-2.519888 0.02198,-5.04843 0.05124,-7.574277 1.854145,0.09407 1.384337,2.281858 3.365856,-0.290994 2.252265,0.7111 3.527195,2.105466 5.508235,0.06253 3.74267,-0.01627 3.25965,4.59172 3.14789,7.222174 v 1.472944 z m 9.36788,-3.894329 h -5.97792 c -1.56371,4.501552 9.00435,1.294195 3.33225,4.176076 -5.68472,0.689692 -6.67716,-8.952653 -0.77989,-8.982421 2.35489,0.0622 3.98532,2.598284 3.42556,4.806345 z m -1.38906,-1.149281 c 0.89266,-5.385193 -7.94744,0.60391 -2.07719,0 z m 8.77258,-5.572776 c -3.48541,-2.287659 3.42454,-2.013846 0,0 z m 0.66145,10.616386 c -2.65363,0.01433 -0.87652,-4.079463 -1.35598,-5.991383 -0.87896,-3.046442 2.28646,-3.069452 1.31524,0.233782 0.0899,1.915364 0.0174,3.839506 0.0407,5.757601 z m 2.23242,-0.305924 c -0.68709,-2.689485 6.0719,0.848888 3.65455,-2.819461 -6.02256,0.17993 -2.23673,-9.14043 1.68055,-4.453605 -1.95306,-0.43549 -6.11326,1.513452 -2.11111,2.502126 4.63488,2.466561 0.8939,7.107846 -3.22399,4.77094 z m 20.76975,0.305924 c -3.29596,1.14026 -5.53414,-6.212326 -6.86264,-5.087857 v 5.087857 c -2.69444,0.04836 -0.91227,-4.075281 -1.38904,-5.991383 V 62.50231 c 3.19864,-0.644665 -0.36705,8.660671 3.3184,3.366446 0.33502,-1.838521 6.02982,-5.2419 3.20842,-1.830946 -2.49661,2.286687 -4.91052,4.969418 -0.91286,7.330623 z m 8.1938,-3.894329 h -5.97792 c -1.56371,4.501552 9.00435,1.294195 3.33225,4.176076 -5.68472,0.689692 -6.67716,-8.952653 -0.77989,-8.982421 2.35489,0.0622 3.98532,2.598284 3.42556,4.806345 z m -1.38906,-1.149281 c 0.89266,-5.385193 -7.94744,0.60391 -2.07719,0 z m 10.46756,5.04361 c -3.28245,-0.216857 0.99097,-8.696665 -4.61824,-7.093483 -1.77051,1.896176 -0.80355,4.732516 -1.05376,7.093483 -2.65363,0.01433 -0.87652,-4.079463 -1.35598,-5.991383 -0.53956,-2.765308 0.93767,-2.524801 1.95521,-1.469558 3.68074,-4.011964 6.25321,2.830099 5.07278,5.995639 l -1e-5,0.732651 z"
           id="path3"
           sodipodi:nodetypes="cccccccccccccccccscccccccsscccccccccscccccccccsccccccccccccccccccccccccccccccccccccccccccccc" />
      </g>
    </g>
  </g>
</svg>
