<svg xmlns="http://www.w3.org/2000/svg" viewBox="0 9.770000457763672 265.75 45.64999771118164" data-asc="0.986328125" width="265.75" height="45.64999771118164"><defs/><g fill="#000000"><g transform="translate(0, 0)"><path d="M0 49.32L0 11.38L4.22 11.38L4.22 27.66L24.90 27.66L24.90 11.38L29.13 11.38L29.13 49.32L24.90 49.32L24.90 31.42L4.22 31.42L4.22 49.32L0 49.32ZM39.62 9.77L43.77 9.77L43.77 15.58L39.62 15.58L39.62 9.77M39.62 21.07L43.77 21.07L43.77 49.32L39.62 49.32L39.62 21.07ZM54.79 54.44Q56.84 51.07 57.23 48.54Q57.40 47.53 57.42 46.31L57.42 42.80L61.96 42.53L61.96 44.90Q61.96 51.83 58.62 55.42L54.79 54.44ZM87.60 11.38L91.82 11.38L91.82 49.32L87.60 49.32L87.60 11.38ZM100.83 24.78L100.05 10.23L104.39 10.23L103.61 24.78L100.83 24.78ZM113.50 49.32L113.53 41.04Q113.53 30.49 113.45 27.59L113.35 23.73Q113.28 21.48 113.21 21.07L117.41 20.85Q117.38 21.14 117.37 21.62Q117.36 22.09 117.36 22.80L117.36 24.63L119.21 23.32Q122.90 20.73 126.26 20.73Q129.61 20.73 131.60 21.77Q133.59 22.80 134.57 25Q134.89 24.80 136.44 23.72Q137.99 22.63 139.09 22.07Q141.67 20.73 144.12 20.73Q148.75 20.73 150.98 22.86Q153.20 25 153.32 29.64L153.32 49.32L149.17 49.32L149.17 31.13Q149.17 27.37 148.07 25.88Q146.97 24.41 144.29 24.41Q141.89 24.41 140.34 25.02Q138.79 25.63 137.72 26.25L135.38 27.64L135.30 27.69Q135.47 28.49 135.47 29.64L135.47 49.32L131.35 49.32L131.35 31.13Q131.35 27.39 130.25 25.88Q129.20 24.41 126.49 24.41Q124.10 24.41 122.55 25.02Q121.00 25.63 119.92 26.25L117.58 27.64L117.63 29.86Q117.68 31.71 117.68 33.62L117.68 49.32L113.50 49.32ZM198.93 44.12L195.46 39.77Q194.19 38.21 193.90 37.92Q190.60 34.28 189.40 32.81Q189.40 32.81 186.77 29.64L186.77 28.83L201.39 11.38L207.01 11.38L191.67 29.13Q198.27 36.65 199.24 37.84L202.25 41.41L207.28 47.22L203.17 49.88Q201.10 46.90 198.93 44.12M180.62 49.32L180.62 11.38L184.84 11.38L184.84 49.32L180.62 49.32ZM231.93 48.46Q228.34 49.80 224.76 49.80Q217.43 49.80 214.18 45.36Q211.52 41.77 211.52 34.99Q211.52 28.20 214.56 24.49Q217.60 20.78 223.51 20.73Q229.03 20.73 231.81 24.85Q234.35 28.59 234.35 35.40L234.35 36.28L215.82 36.28Q216.24 44.07 221.14 45.70Q222.66 46.19 225.11 46.19Q227.56 46.19 231.13 44.85L231.93 48.46M229.96 32.98Q229.66 28.76 228.44 26.68Q226.32 23.19 221.07 24.61Q218.16 25.37 216.72 28.42Q215.87 30.22 215.82 32.98L229.96 32.98ZM242.80 49.32L242.82 41.04Q242.82 30.49 242.75 27.59L242.65 23.73Q242.58 21.48 242.50 21.07L246.70 20.85Q246.68 21.14 246.67 21.62Q246.66 22.09 246.66 22.80L246.66 24.63Q252.37 20.73 256.75 20.73Q261.13 20.73 263.38 22.86Q265.63 25 265.75 29.64L265.75 49.32L261.55 49.32L261.55 31.13Q261.55 27.39 260.47 25.88Q259.40 24.41 256.69 24.41Q253.05 24.41 249.44 26.25Q248.22 26.86 246.88 27.64L246.92 29.86Q246.97 31.71 246.97 33.62L246.97 49.32L242.80 49.32Z"/></g></g></svg>